<?xml version="1.0" encoding="utf-8"?>
<!-- Generator: Adobe Illustrator 21.1.0, SVG Export Plug-In . SVG Version: 6.00 Build 0)  -->
<svg version="1.1" xmlns="http://www.w3.org/2000/svg" xmlns:xlink="http://www.w3.org/1999/xlink" x="0px" y="0px"
	 viewBox="0 0 841.9 595.3" style="enable-background:new 0 0 841.9 595.3;" xml:space="preserve">
<style type="text/css">
	.st0{display:none;}
	.st1{display:inline;}
	.st2{fill:#AA2E5E;}
	.st3{fill:#EDE239;}
	.st4{fill:#53A7B2;}
	.st5{fill:#5C1D53;}
	.st6{fill:#FFFFFF;}
	.st7{fill:#53A7B2;stroke:#53A7B2;stroke-width:0.2;stroke-miterlimit:10;}
</style>
<g id="Capa_3" class="st0">
	<g class="st1">
		<g>
			<path d="M347.8,298.2h-11.2l-2.5,14.4h-7.6l11.9-60h8.5l12.1,60h-8.8L347.8,298.2z M337.2,291.8h9.9l-4.8-26.3L337.2,291.8z"/>
			<path d="M383.6,252.6c4.4,0,7.8,0.6,10.3,1.9c2.5,1.3,4.4,3.1,5.6,5.6c1.3,2.5,2.1,5.6,2.4,9.4c0.3,3.8,0.5,8.1,0.5,13.1
				c0,5.5-0.1,10.1-0.4,13.9c-0.3,3.8-1,6.9-2.3,9.3c-1.2,2.4-3,4.1-5.5,5.2c-2.4,1.1-5.8,1.6-10,1.6h-14v-60H383.6z M378,258.7V306
				h6.3c2.3,0,4-0.4,5.4-1.3c1.3-0.9,2.3-2.2,3-4.1c0.7-1.9,1.1-4.3,1.3-7.3c0.2-3,0.3-6.5,0.3-10.7c0-4.4-0.1-8.1-0.2-11.2
				c-0.2-3-0.6-5.5-1.2-7.4c-0.7-1.9-1.7-3.2-3.1-4.1c-1.4-0.9-3.4-1.3-5.8-1.3H378z"/>
			<path d="M431.5,298.2h-11.2l-2.5,14.4h-7.6l11.9-60h8.5l12.1,60h-8.8L431.5,298.2z M420.9,291.8h9.9l-4.8-26.3L420.9,291.8z"/>
		</g>
		<g>
			<polygon class="st2" points="105.1,214 150.8,223 113.7,282.6 			"/>
		</g>
		<g>
			<polygon class="st3" points="63.8,256.7 101.5,217 113.7,282.6 			"/>
		</g>
		<g>
			<polygon class="st4" points="150.8,223 171.7,245.5 113.7,282.6 			"/>
		</g>
		<g>
			<polygon class="st5" points="113.7,285.4 171.7,245.5 171.7,311 			"/>
		</g>
		<g>
			<polygon class="st4" points="75.2,306.1 64.2,258.5 113.7,282.6 			"/>
		</g>
		<g>
			<polygon class="st2" points="143.1,336.7 78.7,305.1 113.7,282.6 			"/>
		</g>
		<g>
			<polygon class="st3" points="170,315.5 143.6,339 114.5,282.7 			"/>
		</g>
		<g>
			<path class="st5" d="M81.9,306.7l61.1,29.9l26.9,49c0,0-71.2-58.4-91.4-78C77.8,306.8,80.8,306.2,81.9,306.7z"/>
		</g>
		<g>
			<polygon class="st4" points="143.1,336.7 170,315.5 171.7,384.4 			"/>
		</g>
		<g>
			<polygon class="st2" points="238.3,214 191.3,220.9 229.7,282.6 			"/>
		</g>
		<g>
			<polygon class="st3" points="279.7,256.7 240.7,215.7 229.7,282.6 			"/>
		</g>
		<g>
			<polygon class="st4" points="192.6,223 171.7,245.5 229.7,282.6 			"/>
		</g>
		<g>
			<polygon class="st2" points="229.7,285.4 171.7,245.5 171.7,311 			"/>
		</g>
		<g>
			<polygon class="st4" points="268.2,306.1 279.2,258.5 229.7,282.6 			"/>
		</g>
		<g>
			<polygon class="st2" points="200.3,336.7 264.7,305.1 229.7,282.6 			"/>
		</g>
		<g>
			<polygon class="st3" points="173.4,315.5 199.8,339 228.9,282.7 			"/>
		</g>
		<g>
			<path class="st5" d="M261.5,306.7l-61.1,29.9l-26.9,49c0,0,71.2-58.4,91.4-78C265.6,306.8,262.6,306.2,261.5,306.7z"/>
		</g>
		<g>
			<polygon class="st4" points="200.3,336.7 173.4,315.5 171.7,384.4 			"/>
		</g>
		<g>
			<g>
				<g>
					<path class="st6" d="M171.7,390.6c-0.3,0-0.5-0.1-0.8-0.2c-0.7-0.3-1.1-1-1.1-1.7V245.5c0-0.4,0.1-0.9,0.4-1.2l19.6-24.7
						c0.3-0.4,0.7-0.6,1.2-0.7l48.3-8c0.6-0.1,1.3,0.1,1.7,0.6l40.1,43.8c0.4,0.5,0.6,1.1,0.5,1.7l-11.5,49.4
						c-0.1,0.4-0.3,0.8-0.6,1L173,390.2C172.6,390.5,172.2,390.6,171.7,390.6z M173.6,246.2v138.3l92.9-79.5l11.1-47.8l-38.7-42.3
						l-46.6,7.7L173.6,246.2z"/>
				</g>
				<g>
					<path class="st6" d="M171.7,390.6c-0.4,0-0.9-0.2-1.2-0.5L74,307.6c-0.3-0.3-0.5-0.6-0.6-1l-11.5-49.4c-0.1-0.6,0-1.3,0.5-1.7
						l40.1-43.8c0.4-0.5,1.1-0.7,1.7-0.6l48.3,8c0.5,0.1,0.9,0.3,1.2,0.7l19.6,24.7c0.3,0.3,0.4,0.8,0.4,1.2v143.2
						c0,0.7-0.4,1.4-1.1,1.7C172.2,390.6,172,390.6,171.7,390.6z M76.9,305.1l92.9,79.5V246.2l-18.7-23.6l-46.6-7.7l-38.7,42.3
						L76.9,305.1z"/>
				</g>
				<g>
					<polygon class="st6" points="175.1,386.6 171.7,384.7 227.9,282.6 237.7,212.6 241.5,213.1 231.4,284.1 					"/>
				</g>
				<g>
					<polygon class="st6" points="267.2,307.8 228.1,284.2 189.6,221.9 192.9,219.9 231.1,281.8 269.2,304.5 					"/>
				</g>
				<g>
					
						<rect x="198.4" y="230.2" transform="matrix(0.5539 -0.8326 0.8326 0.5539 -130.9256 284.8113)" class="st6" width="3.8" height="68.8"/>
				</g>
				<g>
					
						<rect x="164.6" y="283.4" transform="matrix(0.8832 -0.469 0.469 0.8832 -107.47 139.1619)" class="st6" width="122.2" height="3.8"/>
				</g>
				<g>
					<polygon class="st6" points="168.3,386.6 111.8,283.5 101.9,213.1 105.7,212.6 115.5,282.6 171.7,384.7 					"/>
				</g>
				<g>
					<polygon class="st6" points="76.2,307.8 74.2,304.5 112.3,281.8 150.5,219.9 153.8,221.9 114.7,284.9 					"/>
				</g>
				<g>
					
						<rect x="108.7" y="262.7" transform="matrix(0.832 -0.5547 0.5547 0.832 -122.7359 123.8063)" class="st6" width="68.8" height="3.8"/>
				</g>
				<g>
					
						<rect x="115.8" y="224.3" transform="matrix(0.4687 -0.8834 0.8834 0.4687 -189.527 255.6056)" class="st6" width="3.8" height="122.2"/>
				</g>
			</g>
			<g>
				<polygon class="st6" points="143.3,339 77.8,305.8 79.5,302.4 142.8,334.4 170.5,311.2 172.9,314.1 				"/>
			</g>
			<g>
				<polygon class="st6" points="200.1,339 170.5,314.1 172.9,311.2 200.6,334.4 263.9,302.4 265.6,305.8 				"/>
			</g>
			<g>
				<circle class="st6" cx="113.7" cy="282.6" r="8.6"/>
			</g>
			<g>
				<circle class="st6" cx="171.7" cy="312.6" r="8.6"/>
			</g>
			<g>
				<circle class="st6" cx="229.7" cy="282.6" r="8.6"/>
			</g>
			<g>
				<circle class="st6" cx="171.7" cy="244.3" r="8.6"/>
			</g>
			<g>
				<circle class="st6" cx="171.7" cy="381" r="8.6"/>
			</g>
			<g>
				<circle class="st6" cx="239.6" cy="217" r="8.6"/>
			</g>
			<g>
				<circle class="st6" cx="279.7" cy="256.7" r="8.6"/>
			</g>
			<g>
				<circle class="st6" cx="268.2" cy="306.1" r="8.6"/>
			</g>
			<g>
				<circle class="st6" cx="191.8" cy="220.9" r="8.6"/>
			</g>
			<g>
				<circle class="st6" cx="152.1" cy="220.9" r="8.6"/>
			</g>
			<g>
				<circle class="st6" cx="103.8" cy="214.5" r="8.6"/>
			</g>
			<g>
				<circle class="st6" cx="63.8" cy="256.7" r="8.6"/>
			</g>
			<g>
				<circle class="st6" cx="75.2" cy="306.1" r="8.6"/>
			</g>
			<g>
				<circle class="st6" cx="143.1" cy="336.7" r="8.6"/>
			</g>
			<g>
				
					<ellipse transform="matrix(0.1136 -0.9935 0.9935 0.1136 -155.8164 498.7033)" class="st6" cx="201.6" cy="336.7" rx="8.6" ry="8.6"/>
			</g>
		</g>
		<g>
			<path class="st7" d="M640.5,257v-3.8h3.7c1,0,2.1,0.1,3.1,0.4c1,0.3,2,0.7,2.8,1.4s1.5,1.6,2,2.7c0.5,1.1,0.8,2.5,0.8,4.2v10.9
				c0,2.6,0.2,4.5,0.7,5.9c0.5,1.3,1.5,1.9,3,1.9h2.4v4.5h-2.4c-1.4,0-2.3,0.6-2.9,1.9c-0.6,1.2-0.9,3.3-0.9,6.3v10.7
				c0,1.9-0.3,3.5-0.8,4.8c-0.5,1.2-1.2,2.2-2.1,3s-1.8,1.3-2.8,1.6c-1,0.3-2.1,0.4-3.1,0.4h-3.6v-3.9h3c0.8,0,1.5-0.1,2-0.2
				c0.6-0.2,1.1-0.5,1.5-1.1c0.4-0.6,0.7-1.5,0.9-2.6c0.2-1.2,0.3-2.8,0.3-4.7v-9.3c0-2.3,0.4-4.2,1.3-5.6c0.9-1.4,2.2-2.5,4.1-3.2
				c-1.7-0.6-3.1-1.6-4-3.1c-0.9-1.4-1.4-3.3-1.4-5.7v-8.6c0-1.9-0.1-3.4-0.3-4.5c-0.2-1.1-0.5-2-0.9-2.5c-0.4-0.6-0.9-1-1.5-1.1
				c-0.6-0.2-1.3-0.3-2-0.3H640.5z"/>
		</g>
		<g>
			<path class="st7" d="M473.5,257c-0.7,0-1.4,0.1-2,0.3c-0.6,0.2-1.1,0.6-1.5,1.2c-0.4,0.6-0.7,1.5-0.9,2.6
				c-0.2,1.1-0.3,2.6-0.3,4.4v9c0,2.3-0.4,4.1-1.3,5.4c-0.9,1.3-2.2,2.2-4.1,2.8c2,0.9,3.4,2,4.2,3.3c0.8,1.4,1.2,3.2,1.2,5.6v9.3
				c0,2,0.1,3.6,0.3,4.7c0.2,1.2,0.5,2.1,0.9,2.6c0.4,0.6,0.9,0.9,1.5,1.1c0.6,0.2,1.3,0.2,2,0.2h3.1v3.9h-3.5
				c-1.1,0-2.1-0.1-3.2-0.4c-1.1-0.3-2-0.8-2.8-1.5c-0.8-0.7-1.5-1.7-2.1-3c-0.5-1.2-0.8-2.8-0.8-4.8v-10.4c0-3.1-0.3-5.3-0.8-6.6
				c-0.6-1.3-1.6-1.9-3-1.9h-2.3v-4.5h2.3c1.6,0,2.6-0.7,3.1-2c0.5-1.3,0.7-3.3,0.7-6v-10.8c0-1.6,0.3-3,0.8-4.1
				c0.5-1.1,1.2-2,2-2.7c0.8-0.7,1.8-1.1,2.8-1.4c1-0.3,2.1-0.4,3.1-0.4h3.7v3.8H473.5z"/>
		</g>
		<g>
			<path class="st4" d="M496.9,252.5v53.9h12.3v6.1h-20.4v-60H496.9z"/>
			<path class="st4" d="M535.1,251.4c4,0,7.1,0.6,9.2,1.9c2.2,1.3,3.8,3.2,4.8,5.8c1,2.6,1.7,5.8,1.9,9.7c0.2,3.9,0.3,8.4,0.3,13.7
				c0,5.3-0.1,9.8-0.3,13.7c-0.2,3.9-0.8,7.1-1.9,9.7c-1,2.6-2.7,4.5-4.8,5.8c-2.2,1.3-5.2,1.9-9.2,1.9s-7.1-0.7-9.3-2
				c-2.2-1.3-3.9-3.3-5-5.8c-1.1-2.6-1.8-5.8-2.1-9.7c-0.3-3.9-0.4-8.4-0.4-13.5c0-5.1,0.1-9.6,0.4-13.4c0.3-3.9,1-7.1,2.1-9.7
				c1.1-2.6,2.8-4.6,5-5.9C528,252.1,531.1,251.4,535.1,251.4z M535.1,257.7c-1.9,0-3.5,0.5-4.6,1.4c-1.1,0.9-1.9,2.4-2.5,4.4
				c-0.6,2-0.9,4.5-1.1,7.7c-0.2,3.1-0.2,6.9-0.2,11.3c0,4.5,0.1,8.2,0.2,11.4c0.2,3.1,0.5,5.7,1.1,7.7c0.6,2,1.4,3.4,2.5,4.3
				c1.1,0.9,2.6,1.3,4.6,1.3c1.9,0,3.3-0.4,4.4-1.3c1-0.9,1.8-2.3,2.3-4.3c0.5-2,0.8-4.5,0.9-7.7c0.1-3.1,0.2-6.9,0.2-11.4
				c0-4.4-0.1-8.2-0.2-11.3c-0.1-3.1-0.4-5.7-0.9-7.7c-0.5-2-1.3-3.5-2.3-4.4C538.5,258.2,537,257.7,535.1,257.7z"/>
			<path class="st4" d="M576.4,298.7l8.2-46.2h7.6l-12.1,60h-8.4l-12-60h8.6L576.4,298.7z"/>
			<path class="st4" d="M626.4,252.5v6.3h-15.1v18.9H624l-0.6,6.4h-12.1v22.3h15.5v6.1h-23.4v-60H626.4z"/>
		</g>
		<g>
			<path d="M689,252.5c4.4,0,7.8,0.6,10.3,1.9c2.5,1.3,4.4,3.1,5.6,5.6s2.1,5.6,2.4,9.4c0.3,3.8,0.5,8.1,0.5,13.1
				c0,5.5-0.1,10.1-0.4,13.9c-0.3,3.8-1,6.9-2.3,9.3c-1.2,2.4-3,4.1-5.5,5.2s-5.8,1.6-10,1.6h-14v-60H689z M683.5,258.6v47.3h6.3
				c2.3,0,4-0.4,5.4-1.3c1.3-0.9,2.3-2.2,3-4.1c0.7-1.9,1.1-4.3,1.3-7.3c0.2-3,0.3-6.5,0.3-10.7c0-4.4-0.1-8.1-0.2-11.2
				c-0.2-3-0.6-5.5-1.2-7.4c-0.7-1.9-1.7-3.2-3.1-4.1c-1.4-0.9-3.4-1.3-5.8-1.3H683.5z"/>
			<path d="M743.6,252.5v6.3h-15.1v18.9h12.6l-0.6,6.4h-12.1v22.3H744v6.1h-23.4v-60H743.6z"/>
			<path d="M770.4,298.7l8.2-46.2h7.6l-12.1,60h-8.4l-12-60h8.6L770.4,298.7z"/>
		</g>
	</g>
</g>
<g id="Capa_2">
	<g>
		<g>
			<g>
				<path d="M348.6,297.2h-11.2l-2.5,14.4h-7.6l11.9-60h8.5l12.1,60H351L348.6,297.2z M337.9,290.9h9.9l-4.8-26.3L337.9,290.9z"/>
			</g>
			<g>
				<path d="M384.3,251.6c4.4,0,7.8,0.6,10.3,1.9c2.5,1.3,4.4,3.1,5.6,5.6c1.3,2.5,2.1,5.6,2.4,9.4c0.3,3.8,0.5,8.1,0.5,13.1
					c0,5.5-0.1,10.1-0.4,13.9c-0.3,3.8-1,6.9-2.3,9.3c-1.2,2.4-3,4.1-5.5,5.2c-2.4,1.1-5.8,1.6-10,1.6h-14v-60H384.3z M378.8,257.8
					V305h6.3c2.3,0,4-0.4,5.4-1.3c1.3-0.9,2.3-2.2,3-4.1c0.7-1.9,1.1-4.3,1.3-7.3c0.2-3,0.3-6.5,0.3-10.7c0-4.4-0.1-8.1-0.2-11.2
					c-0.2-3-0.6-5.5-1.2-7.4c-0.7-1.9-1.7-3.2-3.1-4.1c-1.4-0.9-3.4-1.3-5.8-1.3H378.8z"/>
			</g>
			<g>
				<path d="M432.3,297.2h-11.2l-2.5,14.4H411l11.9-60h8.5l12.1,60h-8.8L432.3,297.2z M421.6,290.9h9.9l-4.8-26.3L421.6,290.9z"/>
			</g>
		</g>
		<g>
			<g>
				<polygon class="st2" points="105.9,213 151.6,222 114.4,281.6 				"/>
			</g>
		</g>
		<g>
			<g>
				<polygon class="st3" points="64.5,255.7 102.3,216.1 114.4,281.6 				"/>
			</g>
		</g>
		<g>
			<g>
				<polygon class="st4" points="151.6,222 172.5,244.6 114.4,281.6 				"/>
			</g>
		</g>
		<g>
			<g>
				<polygon class="st5" points="114.4,284.4 172.5,244.6 172.5,310 				"/>
			</g>
		</g>
		<g>
			<g>
				<polygon class="st4" points="76,305.2 64.9,257.5 114.4,281.6 				"/>
			</g>
		</g>
		<g>
			<g>
				<polygon class="st2" points="143.9,335.7 79.4,304.2 114.4,281.6 				"/>
			</g>
		</g>
		<g>
			<g>
				<polygon class="st3" points="170.8,314.5 144.4,338 115.2,281.8 				"/>
			</g>
		</g>
		<g>
			<g>
				<path class="st5" d="M82.7,305.8l61.1,29.9l26.9,49c0,0-71.2-58.4-91.4-78C78.5,305.8,81.6,305.2,82.7,305.8z"/>
			</g>
		</g>
		<g>
			<g>
				<polygon class="st4" points="143.9,335.7 170.8,314.5 172.5,383.4 				"/>
			</g>
		</g>
		<g>
			<g>
				<polygon class="st2" points="239.1,213 192,219.9 230.5,281.6 				"/>
			</g>
		</g>
		<g>
			<g>
				<polygon class="st3" points="280.4,255.7 241.5,214.8 230.5,281.6 				"/>
			</g>
		</g>
		<g>
			<g>
				<polygon class="st4" points="193.4,222 172.5,244.6 230.5,281.6 				"/>
			</g>
		</g>
		<g>
			<g>
				<polygon class="st2" points="230.5,284.4 172.5,244.6 172.5,310 				"/>
			</g>
		</g>
		<g>
			<g>
				<polygon class="st4" points="269,305.2 280,257.5 230.5,281.6 				"/>
			</g>
		</g>
		<g>
			<g>
				<polygon class="st2" points="201.1,335.7 265.5,304.2 230.5,281.6 				"/>
			</g>
		</g>
		<g>
			<g>
				<polygon class="st3" points="174.1,314.5 200.6,338 229.7,281.8 				"/>
			</g>
		</g>
		<g>
			<g>
				<path class="st5" d="M262.2,305.8l-61.1,29.9l-26.9,49c0,0,71.2-58.4,91.4-78C266.4,305.8,263.4,305.2,262.2,305.8z"/>
			</g>
		</g>
		<g>
			<g>
				<polygon class="st4" points="201.1,335.7 174.1,314.5 172.5,383.4 				"/>
			</g>
		</g>
		<g>
			<g>
				<g>
					<g>
						<path class="st6" d="M172.5,389.7c-0.3,0-0.5-0.1-0.8-0.2c-0.7-0.3-1.1-1-1.1-1.7V244.6c0-0.4,0.1-0.9,0.4-1.2l19.6-24.7
							c0.3-0.4,0.7-0.6,1.2-0.7l48.3-8c0.6-0.1,1.3,0.1,1.7,0.6l40.1,43.9c0.4,0.5,0.6,1.1,0.4,1.7l-11.5,49.4
							c-0.1,0.4-0.3,0.8-0.6,1l-96.5,82.6C173.4,389.5,172.9,389.7,172.5,389.7z M174.4,245.2v138.3l92.9-79.5l11.1-47.8L239.6,214
							l-46.6,7.7L174.4,245.2z"/>
					</g>
				</g>
				<g>
					<g>
						<path class="st6" d="M172.5,389.7c-0.4,0-0.9-0.2-1.2-0.5l-96.5-82.6c-0.3-0.3-0.5-0.6-0.6-1l-11.5-49.4
							c-0.1-0.6,0-1.3,0.5-1.7l40.1-43.9c0.4-0.5,1.1-0.7,1.7-0.6l48.3,8c0.5,0.1,0.9,0.3,1.2,0.7l19.6,24.7
							c0.3,0.3,0.4,0.8,0.4,1.2v143.2c0,0.7-0.4,1.4-1.1,1.7C173,389.6,172.7,389.7,172.5,389.7z M77.7,304.1l92.9,79.5V245.2
							l-18.7-23.6l-46.6-7.7l-38.7,42.3L77.7,304.1z"/>
					</g>
				</g>
				<g>
					<g>
						<polygon class="st6" points="175.8,385.6 172.5,383.8 228.7,281.6 238.5,211.6 242.3,212.2 232.2,283.2 						"/>
					</g>
				</g>
				<g>
					<g>
						<polygon class="st6" points="268,306.8 228.9,283.2 190.4,220.9 193.7,218.9 231.9,280.8 269.9,303.5 						"/>
					</g>
				</g>
				<g>
					<g>
						
							<rect x="199.2" y="229.2" transform="matrix(0.554 -0.8325 0.8325 0.554 -129.7702 284.9861)" class="st6" width="3.8" height="68.8"/>
					</g>
				</g>
				<g>
					<g>
						
							<rect x="165.3" y="282.5" transform="matrix(0.8832 -0.469 0.469 0.8832 -106.9211 139.408)" class="st6" width="122.2" height="3.8"/>
					</g>
				</g>
				<g>
					<g>
						<polygon class="st6" points="169.1,385.6 112.5,282.5 102.7,212.2 106.5,211.6 116.3,281.6 172.5,383.8 						"/>
					</g>
				</g>
				<g>
					<g>
						<polygon class="st6" points="77,306.8 75,303.5 113.1,280.8 151.3,218.9 154.5,220.9 115.4,283.9 						"/>
					</g>
				</g>
				<g>
					<g>
						
							<rect x="109.5" y="261.7" transform="matrix(0.8321 -0.5547 0.5547 0.8321 -122.0636 124.0685)" class="st6" width="68.8" height="3.8"/>
					</g>
				</g>
				<g>
					<g>
						
							<rect x="116.6" y="223.3" transform="matrix(0.4687 -0.8834 0.8834 0.4687 -188.256 255.7832)" class="st6" width="3.8" height="122.2"/>
					</g>
				</g>
			</g>
			<g>
				<g>
					<polygon class="st6" points="144.1,338 78.6,304.8 80.3,301.4 143.6,333.4 171.2,310.2 173.7,313.1 					"/>
				</g>
			</g>
			<g>
				<g>
					<polygon class="st6" points="200.8,338 171.2,313.1 173.7,310.2 201.4,333.4 264.6,301.4 266.4,304.8 					"/>
				</g>
			</g>
			<g>
				<g>
					<circle class="st6" cx="114.4" cy="281.6" r="8.6"/>
				</g>
			</g>
			<g>
				<g>
					<circle class="st6" cx="172.5" cy="311.6" r="8.6"/>
				</g>
			</g>
			<g>
				<g>
					<circle class="st6" cx="230.5" cy="281.6" r="8.6"/>
				</g>
			</g>
			<g>
				<g>
					<circle class="st6" cx="172.5" cy="243.3" r="8.6"/>
				</g>
			</g>
			<g>
				<g>
					<circle class="st6" cx="172.5" cy="380" r="8.6"/>
				</g>
			</g>
			<g>
				<g>
					<circle class="st6" cx="240.4" cy="216.1" r="8.6"/>
				</g>
			</g>
			<g>
				<g>
					<circle class="st6" cx="280.4" cy="255.7" r="8.6"/>
				</g>
			</g>
			<g>
				<g>
					<circle class="st6" cx="269" cy="305.2" r="8.6"/>
				</g>
			</g>
			<g>
				<g>
					<circle class="st6" cx="192.5" cy="219.9" r="8.6"/>
				</g>
			</g>
			<g>
				<g>
					<circle class="st6" cx="152.9" cy="219.9" r="8.6"/>
				</g>
			</g>
			<g>
				<g>
					<circle class="st6" cx="104.6" cy="213.5" r="8.6"/>
				</g>
			</g>
			<g>
				<g>
					<circle class="st6" cx="64.5" cy="255.7" r="8.6"/>
				</g>
			</g>
			<g>
				<g>
					<circle class="st6" cx="76" cy="305.2" r="8.6"/>
				</g>
			</g>
			<g>
				<g>
					<circle class="st6" cx="143.9" cy="335.7" r="8.6"/>
				</g>
			</g>
			<g>
				<g>
					
						<ellipse transform="matrix(0.1136 -0.9935 0.9935 0.1136 -154.1638 498.6033)" class="st6" cx="202.4" cy="335.7" rx="8.6" ry="8.6"/>
				</g>
			</g>
		</g>
		<g>
			<g>
				<path class="st5" d="M641.2,256v-3.8h3.7c1,0,2.1,0.1,3.1,0.4s2,0.7,2.8,1.4c0.8,0.7,1.5,1.5,2,2.7s0.8,2.5,0.8,4.1v10.9
					c0,2.6,0.2,4.5,0.7,5.8c0.5,1.3,1.5,2,3,2h2.4v4.5h-2.4c-1.4,0-2.3,0.6-2.9,1.9c-0.6,1.2-0.9,3.3-0.9,6.3v10.7
					c0,1.9-0.3,3.5-0.8,4.8c-0.5,1.2-1.2,2.2-2.1,3c-0.8,0.7-1.8,1.3-2.8,1.5c-1,0.3-2.1,0.4-3.1,0.4h-3.6v-3.9h3
					c0.8,0,1.5-0.1,2-0.2c0.6-0.2,1.1-0.5,1.5-1.1c0.4-0.6,0.7-1.5,0.9-2.6c0.2-1.2,0.3-2.7,0.3-4.7v-9.3c0-2.4,0.4-4.2,1.3-5.6
					c0.9-1.4,2.2-2.5,4.1-3.2c-1.7-0.6-3.1-1.6-4-3.1c-0.9-1.4-1.4-3.3-1.4-5.7v-8.6c0-1.9-0.1-3.4-0.3-4.5c-0.2-1.1-0.5-2-0.9-2.5
					c-0.4-0.6-0.9-1-1.5-1.1c-0.6-0.2-1.3-0.3-2-0.3H641.2z"/>
				<path class="st5" d="M644.8,312.7h-3.7v-4.1h3.1c0.8,0,1.4-0.1,2-0.2c0.6-0.2,1-0.5,1.4-1.1c0.4-0.6,0.7-1.4,0.9-2.6
					c0.2-1.2,0.3-2.8,0.3-4.7v-9.3c0-2.4,0.5-4.3,1.3-5.7c0.8-1.3,2.1-2.4,3.9-3.2c-1.6-0.6-2.9-1.6-3.8-3c-0.9-1.4-1.4-3.4-1.4-5.7
					v-8.6c0-1.9-0.1-3.4-0.3-4.5c-0.2-1.1-0.5-1.9-0.9-2.5c-0.4-0.6-0.8-0.9-1.4-1.1c-0.6-0.2-1.2-0.3-2-0.3h-3.2v-4h3.8
					c1,0,2.1,0.1,3.1,0.4c1,0.3,2,0.7,2.8,1.4c0.8,0.7,1.5,1.6,2,2.7c0.5,1.1,0.8,2.5,0.8,4.2v10.9c0,2.6,0.2,4.5,0.7,5.8
					c0.5,1.3,1.4,1.9,2.9,1.9h2.5v4.7h-2.5c-1.3,0-2.3,0.6-2.8,1.8c-0.6,1.2-0.9,3.3-0.9,6.3v10.7c0,1.9-0.3,3.6-0.8,4.8
					c-0.5,1.2-1.2,2.2-2.1,3c-0.8,0.7-1.8,1.3-2.9,1.6C646.9,312.5,645.9,312.7,644.8,312.7z M641.3,312.5h3.5c1,0,2.1-0.1,3.1-0.4
					c1-0.3,2-0.8,2.8-1.5c0.8-0.7,1.5-1.7,2-2.9c0.5-1.2,0.8-2.8,0.8-4.7v-10.7c0-3,0.3-5.1,0.9-6.4c0.6-1.3,1.6-1.9,3-1.9h2.3v-4.3
					h-2.3c-1.6,0-2.6-0.7-3.1-2c-0.5-1.3-0.7-3.3-0.7-5.9v-10.9c0-1.6-0.3-3-0.8-4.1c-0.5-1.1-1.2-2-2-2.6c-0.8-0.6-1.7-1.1-2.8-1.4
					c-1-0.3-2.1-0.4-3.1-0.4h-3.6v3.6h3c0.8,0,1.5,0.1,2.1,0.3c0.6,0.2,1.1,0.6,1.5,1.2c0.4,0.6,0.7,1.5,0.9,2.6
					c0.2,1.1,0.3,2.7,0.3,4.5v8.6c0,2.3,0.5,4.2,1.4,5.6c0.9,1.4,2.2,2.4,3.9,3l0.2,0.1l-0.2,0.1c-1.8,0.7-3.1,1.8-4,3.2
					c-0.9,1.4-1.3,3.3-1.3,5.6v9.3c0,2-0.1,3.6-0.3,4.8c-0.2,1.2-0.5,2.1-0.9,2.7c-0.4,0.6-0.9,1-1.5,1.1c-0.6,0.2-1.3,0.3-2.1,0.3
					h-2.9V312.5z"/>
			</g>
		</g>
		<g>
			<g>
				<path class="st5" d="M474.3,256c-0.7,0-1.4,0.1-2,0.3c-0.6,0.2-1.1,0.6-1.5,1.2c-0.4,0.6-0.7,1.5-0.9,2.6
					c-0.2,1.1-0.3,2.6-0.3,4.4v9c0,2.3-0.4,4.1-1.3,5.4c-0.9,1.3-2.2,2.2-4.1,2.8c2,0.9,3.4,2,4.2,3.3c0.8,1.4,1.2,3.2,1.2,5.6v9.3
					c0,2,0.1,3.6,0.3,4.7c0.2,1.2,0.5,2.1,0.9,2.6c0.4,0.6,0.9,0.9,1.5,1.1c0.6,0.2,1.3,0.2,2,0.2h3.1v3.9H474
					c-1.1,0-2.1-0.1-3.2-0.4c-1.1-0.3-2-0.8-2.8-1.5c-0.8-0.7-1.5-1.7-2.1-3c-0.5-1.2-0.8-2.8-0.8-4.8v-10.4c0-3.1-0.3-5.3-0.8-6.6
					c-0.6-1.3-1.6-1.9-3-1.9h-2.3v-4.5h2.3c1.6,0,2.6-0.7,3.1-2c0.5-1.3,0.7-3.3,0.7-6v-10.8c0-1.6,0.3-3,0.8-4.1
					c0.5-1.1,1.2-2,2-2.7c0.8-0.7,1.8-1.1,2.8-1.4s2.1-0.4,3.1-0.4h3.7v3.8H474.3z"/>
				<path class="st5" d="M477.5,312.7H474c-1.1,0-2.2-0.1-3.2-0.4c-1.1-0.3-2-0.8-2.9-1.6c-0.9-0.8-1.6-1.8-2.1-3
					c-0.5-1.2-0.8-2.9-0.8-4.8v-10.4c0-3.1-0.3-5.3-0.8-6.5c-0.5-1.2-1.5-1.9-2.9-1.9h-2.4v-4.7h2.4c1.5,0,2.5-0.6,3-1.9
					c0.5-1.3,0.7-3.3,0.7-5.9v-10.8c0-1.6,0.3-3.1,0.8-4.2c0.5-1.1,1.2-2,2-2.7c0.8-0.7,1.8-1.1,2.8-1.4c1.1-0.3,2.1-0.4,3.1-0.4
					h3.8v4h-3.3c-0.7,0-1.4,0.1-2,0.3c-0.6,0.2-1.1,0.6-1.4,1.2c-0.4,0.6-0.7,1.4-0.9,2.5c-0.2,1.1-0.3,2.5-0.3,4.4v9
					c0,2.3-0.5,4.1-1.4,5.4c-0.9,1.2-2.2,2.1-3.9,2.8c1.9,0.9,3.2,2,4,3.3c0.8,1.4,1.2,3.3,1.2,5.7v9.3c0,2,0.1,3.6,0.3,4.7
					c0.2,1.1,0.5,2,0.9,2.6c0.4,0.6,0.9,0.9,1.5,1.1c0.6,0.2,1.3,0.2,2,0.2h3.2V312.7z M459,283.9h2.2c1.5,0,2.5,0.7,3.1,2
					c0.6,1.3,0.8,3.5,0.8,6.6v10.4c0,1.9,0.3,3.5,0.8,4.7c0.5,1.2,1.2,2.2,2,2.9c0.8,0.7,1.8,1.2,2.8,1.5c1,0.3,2.1,0.4,3.2,0.4h3.4
					v-3.7h-3c-0.8,0-1.4-0.1-2-0.3c-0.6-0.2-1.1-0.6-1.6-1.1c-0.4-0.6-0.7-1.5-0.9-2.7c-0.2-1.2-0.3-2.7-0.3-4.8v-9.3
					c0-2.4-0.4-4.2-1.2-5.6c-0.8-1.3-2.2-2.4-4.1-3.3l-0.2-0.1l0.2-0.1c1.8-0.6,3.1-1.5,4-2.8c0.9-1.2,1.3-3,1.3-5.3v-9
					c0-1.9,0.1-3.3,0.3-4.4c0.2-1.1,0.5-2,0.9-2.6c0.4-0.6,0.9-1,1.5-1.2c0.6-0.2,1.3-0.3,2-0.3h3.1v-3.6h-3.6c-1,0-2,0.1-3.1,0.4
					c-1,0.3-1.9,0.7-2.8,1.4c-0.8,0.7-1.5,1.5-2,2.6c-0.5,1.1-0.8,2.5-0.8,4.1v10.8c0,2.7-0.3,4.7-0.7,6c-0.5,1.3-1.6,2-3.2,2H459
					V283.9z"/>
			</g>
		</g>
		<g>
			<g>
				<path class="st5" d="M497.7,251.5v53.9H510v6.1h-20.4v-60H497.7z"/>
			</g>
			<g>
				<path class="st5" d="M535.9,250.4c4,0,7.1,0.6,9.2,1.9c2.2,1.3,3.8,3.2,4.8,5.8c1,2.6,1.7,5.8,1.9,9.7c0.2,3.9,0.3,8.4,0.3,13.7
					c0,5.3-0.1,9.8-0.3,13.7c-0.2,3.9-0.8,7.1-1.9,9.7c-1,2.6-2.7,4.5-4.8,5.8c-2.2,1.3-5.2,1.9-9.2,1.9c-4,0-7.1-0.7-9.3-2
					c-2.2-1.3-3.9-3.3-5-5.8c-1.1-2.6-1.8-5.8-2.1-9.7c-0.3-3.9-0.4-8.4-0.4-13.5c0-5.1,0.1-9.6,0.4-13.4c0.3-3.9,1-7.1,2.1-9.7
					c1.1-2.6,2.8-4.6,5-5.9C528.8,251.1,531.9,250.4,535.9,250.4z M535.9,256.7c-1.9,0-3.5,0.5-4.5,1.4c-1.1,0.9-1.9,2.4-2.5,4.4
					c-0.6,2-0.9,4.5-1.1,7.7c-0.2,3.1-0.2,6.9-0.2,11.3c0,4.5,0.1,8.2,0.2,11.4c0.2,3.1,0.5,5.7,1.1,7.7c0.6,2,1.4,3.4,2.5,4.3
					c1.1,0.9,2.6,1.3,4.5,1.3c1.9,0,3.3-0.4,4.4-1.3c1-0.9,1.8-2.3,2.3-4.3c0.5-2,0.8-4.5,0.9-7.7c0.1-3.1,0.2-6.9,0.2-11.4
					c0-4.4-0.1-8.2-0.2-11.3c-0.1-3.1-0.4-5.7-0.9-7.7c-0.5-2-1.3-3.5-2.3-4.4C539.2,257.2,537.8,256.7,535.9,256.7z"/>
			</g>
			<g>
				<path class="st5" d="M577.2,297.7l8.2-46.2h7.6l-12.1,60h-8.4l-12-60h8.6L577.2,297.7z"/>
			</g>
			<g>
				<path class="st5" d="M627.2,251.5v6.3h-15.1v18.9h12.6l-0.6,6.4h-12.1v22.3h15.5v6.1h-23.4v-60H627.2z"/>
			</g>
		</g>
		<g>
			<g>
				<path d="M689.8,251.5c4.4,0,7.8,0.6,10.3,1.9c2.5,1.3,4.4,3.1,5.6,5.6c1.3,2.5,2.1,5.6,2.4,9.4c0.3,3.8,0.5,8.1,0.5,13.1
					c0,5.5-0.1,10.1-0.4,13.9c-0.3,3.8-1,6.9-2.3,9.3c-1.2,2.4-3,4.1-5.5,5.2s-5.8,1.6-10,1.6h-14v-60H689.8z M684.2,257.6v47.3h6.3
					c2.3,0,4-0.4,5.4-1.3c1.3-0.9,2.3-2.2,3-4.1c0.7-1.9,1.1-4.3,1.3-7.3c0.2-3,0.3-6.5,0.3-10.7c0-4.4-0.1-8.1-0.2-11.2
					c-0.2-3-0.6-5.5-1.2-7.4c-0.7-1.9-1.7-3.2-3.1-4.1c-1.4-0.9-3.4-1.3-5.8-1.3H684.2z"/>
			</g>
			<g>
				<path d="M744.4,251.5v6.3h-15.1v18.9H742l-0.6,6.4h-12.1v22.3h15.5v6.1h-23.4v-60H744.4z"/>
			</g>
			<g>
				<path d="M771.2,297.7l8.2-46.2h7.6l-12.1,60h-8.4l-12-60h8.6L771.2,297.7z"/>
			</g>
		</g>
	</g>
</g>
<g id="Capa_4" class="st0">
	<g class="st1">
		<g>
			<g>
				<path class="st6" d="M349,333.2h-11.2l-2.5,14.4h-7.6l11.9-60h8.5l12.1,60h-8.8L349,333.2z M338.4,326.8h9.9l-4.8-26.3
					L338.4,326.8z"/>
			</g>
			<g>
				<path class="st6" d="M384.8,287.6c4.4,0,7.8,0.6,10.3,1.9c2.5,1.3,4.4,3.1,5.6,5.6c1.3,2.5,2.1,5.6,2.4,9.4
					c0.3,3.8,0.5,8.1,0.5,13.1c0,5.5-0.1,10.1-0.4,13.9c-0.3,3.8-1,6.9-2.3,9.3c-1.2,2.4-3,4.1-5.5,5.2c-2.4,1.1-5.8,1.6-10,1.6h-14
					v-60H384.8z M379.2,293.7V341h6.3c2.3,0,4-0.4,5.4-1.3c1.3-0.9,2.3-2.2,3-4.1c0.7-1.9,1.1-4.3,1.3-7.3c0.2-3,0.3-6.5,0.3-10.7
					c0-4.4-0.1-8.1-0.2-11.1c-0.2-3-0.6-5.5-1.2-7.4c-0.7-1.9-1.7-3.3-3.1-4.1c-1.4-0.9-3.4-1.3-5.8-1.3H379.2z"/>
			</g>
			<g>
				<path class="st6" d="M432.7,333.2h-11.2l-2.5,14.4h-7.6l11.9-60h8.5l12.1,60h-8.8L432.7,333.2z M422.1,326.8h9.9l-4.8-26.3
					L422.1,326.8z"/>
			</g>
		</g>
		<g>
			<g>
				<polygon class="st2" points="106.3,249 152,258 114.9,317.6 				"/>
			</g>
		</g>
		<g>
			<g>
				<polygon class="st3" points="65,291.7 102.7,252 114.9,317.6 				"/>
			</g>
		</g>
		<g>
			<g>
				<polygon class="st4" points="152,258 172.9,280.5 114.9,317.6 				"/>
			</g>
		</g>
		<g>
			<g>
				<polygon class="st5" points="114.9,320.4 172.9,280.5 172.9,346 				"/>
			</g>
		</g>
		<g>
			<g>
				<polygon class="st4" points="76.4,341.1 65.4,293.5 114.9,317.6 				"/>
			</g>
		</g>
		<g>
			<g>
				<polygon class="st2" points="144.3,371.7 79.9,340.1 114.9,317.6 				"/>
			</g>
		</g>
		<g>
			<g>
				<polygon class="st3" points="171.2,350.5 144.8,374 115.7,317.7 				"/>
			</g>
		</g>
		<g>
			<g>
				<path class="st5" d="M83.1,341.7l61.1,29.9l26.9,49c0,0-71.2-58.4-91.4-78C79,341.8,82,341.2,83.1,341.7z"/>
			</g>
		</g>
		<g>
			<g>
				<polygon class="st4" points="144.3,371.7 171.2,350.5 172.9,419.4 				"/>
			</g>
		</g>
		<g>
			<g>
				<polygon class="st2" points="239.5,249 192.5,255.9 230.9,317.6 				"/>
			</g>
		</g>
		<g>
			<g>
				<polygon class="st3" points="280.8,291.7 241.9,250.7 230.9,317.6 				"/>
			</g>
		</g>
		<g>
			<g>
				<polygon class="st4" points="193.8,258 172.9,280.5 230.9,317.6 				"/>
			</g>
		</g>
		<g>
			<g>
				<polygon class="st2" points="230.9,320.4 172.9,280.5 172.9,346 				"/>
			</g>
		</g>
		<g>
			<g>
				<polygon class="st4" points="269.4,341.1 280.4,293.5 230.9,317.6 				"/>
			</g>
		</g>
		<g>
			<g>
				<polygon class="st2" points="201.5,371.7 265.9,340.1 230.9,317.6 				"/>
			</g>
		</g>
		<g>
			<g>
				<polygon class="st3" points="174.6,350.5 201,374 230.1,317.7 				"/>
			</g>
		</g>
		<g>
			<g>
				<path class="st5" d="M262.7,341.7l-61.1,29.9l-26.9,49c0,0,71.2-58.4,91.4-78C266.8,341.8,263.8,341.2,262.7,341.7z"/>
			</g>
		</g>
		<g>
			<g>
				<polygon class="st4" points="201.5,371.7 174.6,350.5 172.9,419.4 				"/>
			</g>
		</g>
		<g>
			<g>
				<g>
					<g>
						<path class="st6" d="M172.9,425.6c-0.3,0-0.5-0.1-0.8-0.2c-0.7-0.3-1.1-1-1.1-1.7V280.5c0-0.4,0.1-0.9,0.4-1.2l19.6-24.7
							c0.3-0.4,0.7-0.6,1.2-0.7l48.3-8c0.6-0.1,1.3,0.1,1.7,0.6l40.1,43.8c0.4,0.5,0.6,1.1,0.5,1.7l-11.5,49.4
							c-0.1,0.4-0.3,0.8-0.6,1l-96.5,82.6C173.8,425.5,173.3,425.6,172.9,425.6z M174.8,281.2v138.3l92.9-79.5l11.1-47.8l-38.7-42.3
							l-46.6,7.7L174.8,281.2z"/>
					</g>
				</g>
				<g>
					<g>
						<path class="st6" d="M172.9,425.6c-0.4,0-0.9-0.2-1.2-0.5l-96.5-82.6c-0.3-0.3-0.5-0.6-0.6-1l-11.5-49.4
							c-0.1-0.6,0-1.3,0.5-1.7l40.1-43.8c0.4-0.5,1.1-0.7,1.7-0.6l48.3,8c0.5,0.1,0.9,0.3,1.2,0.7l19.6,24.7
							c0.3,0.3,0.4,0.8,0.4,1.2v143.2c0,0.7-0.4,1.4-1.1,1.7C173.4,425.6,173.2,425.6,172.9,425.6z M78.1,340.1l92.9,79.5V281.2
							l-18.7-23.6l-46.6-7.7L67,292.3L78.1,340.1z"/>
					</g>
				</g>
				<g>
					<g>
						<polygon class="st6" points="176.3,421.6 172.9,419.7 229.1,317.6 238.9,247.6 242.7,248.1 232.6,319.1 						"/>
					</g>
				</g>
				<g>
					<g>
						<polygon class="st6" points="268.4,342.8 229.3,319.2 190.8,256.9 194.1,254.9 232.3,316.8 270.4,339.5 						"/>
					</g>
				</g>
				<g>
					<g>
						
							<rect x="199.6" y="265.2" transform="matrix(0.5539 -0.8326 0.8326 0.5539 -159.5318 301.4209)" class="st6" width="3.8" height="68.8"/>
					</g>
				</g>
				<g>
					<g>
						
							<rect x="165.8" y="318.4" transform="matrix(0.8832 -0.469 0.469 0.8832 -123.7442 143.8108)" class="st6" width="122.2" height="3.8"/>
					</g>
				</g>
				<g>
					<g>
						<polygon class="st6" points="169.5,421.6 113,318.5 103.1,248.1 106.9,247.6 116.7,317.6 172.9,419.7 						"/>
					</g>
				</g>
				<g>
					<g>
						<polygon class="st6" points="77.4,342.8 75.4,339.5 113.5,316.8 151.7,254.9 155,256.9 115.9,319.9 						"/>
					</g>
				</g>
				<g>
					<g>
						
							<rect x="109.9" y="297.7" transform="matrix(0.832 -0.5547 0.5547 0.832 -141.9497 130.3486)" class="st6" width="68.8" height="3.8"/>
					</g>
				</g>
				<g>
					<g>
						
							<rect x="117" y="259.3" transform="matrix(0.4687 -0.8834 0.8834 0.4687 -219.8085 275.2581)" class="st6" width="3.8" height="122.2"/>
					</g>
				</g>
			</g>
			<g>
				<g>
					<polygon class="st6" points="144.5,374 79,340.8 80.7,337.4 144,369.4 171.7,346.2 174.1,349.1 					"/>
				</g>
			</g>
			<g>
				<g>
					<polygon class="st6" points="201.3,374 171.7,349.1 174.1,346.2 201.8,369.4 265.1,337.4 266.8,340.8 					"/>
				</g>
			</g>
			<g>
				<g>
					<circle class="st6" cx="114.9" cy="317.6" r="8.6"/>
				</g>
			</g>
			<g>
				<g>
					<circle class="st6" cx="172.9" cy="347.6" r="8.6"/>
				</g>
			</g>
			<g>
				<g>
					<circle class="st6" cx="230.9" cy="317.6" r="8.6"/>
				</g>
			</g>
			<g>
				<g>
					<circle class="st6" cx="172.9" cy="279.3" r="8.6"/>
				</g>
			</g>
			<g>
				<g>
					<circle class="st6" cx="172.9" cy="416" r="8.6"/>
				</g>
			</g>
			<g>
				<g>
					<circle class="st6" cx="240.8" cy="252" r="8.6"/>
				</g>
			</g>
			<g>
				<g>
					<circle class="st6" cx="280.8" cy="291.7" r="8.6"/>
				</g>
			</g>
			<g>
				<g>
					<circle class="st6" cx="269.4" cy="341.1" r="8.6"/>
				</g>
			</g>
			<g>
				<g>
					<circle class="st6" cx="193" cy="255.9" r="8.6"/>
				</g>
			</g>
			<g>
				<g>
					<circle class="st6" cx="153.3" cy="255.9" r="8.6"/>
				</g>
			</g>
			<g>
				<g>
					<circle class="st6" cx="105" cy="249.5" r="8.6"/>
				</g>
			</g>
			<g>
				<g>
					<circle class="st6" cx="65" cy="291.7" r="8.6"/>
				</g>
			</g>
			<g>
				<g>
					<circle class="st6" cx="76.4" cy="341.1" r="8.6"/>
				</g>
			</g>
			<g>
				<g>
					<circle class="st6" cx="144.3" cy="371.7" r="8.6"/>
				</g>
			</g>
			<g>
				<g>
					
						<ellipse transform="matrix(0.1136 -0.9935 0.9935 0.1136 -189.5284 530.9166)" class="st6" cx="202.8" cy="371.7" rx="8.6" ry="8.6"/>
				</g>
			</g>
		</g>
		<g>
			<g>
				<path class="st4" d="M641.7,292v-3.8h3.7c1,0,2.1,0.1,3.1,0.4c1,0.3,2,0.7,2.8,1.4c0.8,0.7,1.5,1.6,2,2.7
					c0.5,1.1,0.8,2.5,0.8,4.2v10.9c0,2.6,0.2,4.5,0.7,5.9c0.5,1.3,1.5,1.9,3,1.9h2.4v4.5h-2.4c-1.4,0-2.3,0.6-2.9,1.9
					c-0.6,1.2-0.9,3.3-0.9,6.3v10.7c0,1.9-0.3,3.5-0.8,4.8c-0.5,1.2-1.2,2.2-2.1,3s-1.8,1.3-2.8,1.6c-1,0.3-2.1,0.4-3.1,0.4h-3.6
					v-3.9h3c0.8,0,1.5-0.1,2-0.2c0.6-0.2,1.1-0.5,1.5-1.1c0.4-0.6,0.7-1.5,0.9-2.6c0.2-1.2,0.3-2.8,0.3-4.7v-9.3
					c0-2.3,0.4-4.2,1.3-5.6c0.9-1.4,2.2-2.5,4.1-3.2c-1.7-0.6-3.1-1.6-4-3.1c-0.9-1.4-1.4-3.3-1.4-5.7v-8.6c0-1.9-0.1-3.4-0.3-4.5
					c-0.2-1.1-0.5-2-0.9-2.5c-0.4-0.6-0.9-1-1.5-1.1c-0.6-0.2-1.3-0.3-2-0.3H641.7z"/>
				<path class="st4" d="M645.3,348.6h-3.7v-4.1h3.1c0.8,0,1.4-0.1,2-0.2c0.5-0.2,1-0.5,1.4-1.1c0.4-0.6,0.7-1.4,0.9-2.6
					c0.2-1.2,0.3-2.8,0.3-4.7v-9.3c0-2.4,0.5-4.3,1.3-5.7c0.9-1.4,2.2-2.4,3.9-3.2c-1.6-0.6-2.9-1.6-3.8-3c-0.9-1.4-1.4-3.4-1.4-5.7
					v-8.6c0-1.9-0.1-3.4-0.3-4.5c-0.2-1.1-0.5-1.9-0.9-2.5c-0.4-0.6-0.8-0.9-1.4-1.1c-0.6-0.2-1.3-0.3-2-0.3h-3.2v-4h3.8
					c1,0,2.1,0.1,3.1,0.4c1,0.3,2,0.7,2.8,1.4c0.8,0.7,1.5,1.6,2,2.7c0.5,1.1,0.8,2.5,0.8,4.2v10.9c0,2.6,0.2,4.5,0.7,5.8
					c0.5,1.3,1.5,1.9,2.9,1.9h2.5v4.7h-2.5c-1.3,0-2.3,0.6-2.8,1.8c-0.6,1.2-0.9,3.3-0.9,6.3v10.7c0,1.9-0.3,3.6-0.8,4.8
					c-0.5,1.2-1.2,2.3-2.1,3c-0.9,0.7-1.8,1.3-2.9,1.6C647.3,348.5,646.3,348.6,645.3,348.6z M641.8,348.4h3.5c1,0,2.1-0.1,3.1-0.4
					c1-0.3,1.9-0.8,2.8-1.5c0.8-0.7,1.5-1.7,2-2.9c0.5-1.2,0.8-2.8,0.8-4.7v-10.7c0-3,0.3-5.1,0.9-6.4c0.6-1.3,1.6-1.9,3-1.9h2.3
					v-4.3h-2.3c-1.6,0-2.6-0.7-3.1-2c-0.5-1.3-0.7-3.3-0.7-5.9v-10.9c0-1.6-0.3-3-0.8-4.1c-0.5-1.1-1.2-2-2-2.6
					c-0.8-0.6-1.7-1.1-2.7-1.4c-1-0.3-2.1-0.4-3.1-0.4h-3.6v3.6h3c0.8,0,1.5,0.1,2.1,0.3c0.6,0.2,1.1,0.6,1.5,1.2
					c0.4,0.6,0.7,1.5,0.9,2.6c0.2,1.1,0.3,2.7,0.3,4.5v8.6c0,2.3,0.5,4.2,1.4,5.6c0.9,1.4,2.2,2.4,3.9,3l0.2,0.1l-0.2,0.1
					c-1.8,0.7-3.1,1.8-4,3.2c-0.9,1.4-1.3,3.3-1.3,5.6v9.3c0,2-0.1,3.6-0.3,4.8c-0.2,1.2-0.5,2.1-0.9,2.7c-0.4,0.6-0.9,1-1.5,1.2
					c-0.6,0.2-1.3,0.3-2.1,0.3h-2.9V348.4z"/>
			</g>
		</g>
		<g>
			<g>
				<path class="st4" d="M474.7,292c-0.7,0-1.4,0.1-2,0.3c-0.6,0.2-1.1,0.6-1.5,1.2c-0.4,0.6-0.7,1.5-0.9,2.6
					c-0.2,1.1-0.3,2.6-0.3,4.4v9c0,2.3-0.4,4.1-1.3,5.4c-0.9,1.3-2.2,2.2-4.1,2.8c2,0.9,3.4,2,4.2,3.3c0.8,1.4,1.2,3.2,1.2,5.6v9.3
					c0,2,0.1,3.6,0.3,4.7c0.2,1.2,0.5,2.1,0.9,2.6c0.4,0.6,0.9,0.9,1.5,1.1c0.6,0.2,1.3,0.2,2,0.2h3.1v3.9h-3.5
					c-1.1,0-2.1-0.1-3.2-0.4c-1.1-0.3-2-0.8-2.8-1.5c-0.8-0.7-1.5-1.7-2.1-3c-0.5-1.2-0.8-2.8-0.8-4.8v-10.4c0-3.1-0.3-5.3-0.8-6.6
					c-0.6-1.3-1.6-1.9-3-1.9h-2.3v-4.5h2.3c1.6,0,2.6-0.7,3.1-2c0.5-1.3,0.7-3.3,0.7-6v-10.8c0-1.6,0.3-3,0.8-4.1
					c0.5-1.1,1.2-2,2-2.7c0.8-0.7,1.8-1.1,2.8-1.4c1-0.3,2.1-0.4,3.1-0.4h3.7v3.8H474.7z"/>
				<path class="st4" d="M477.9,348.6h-3.6c-1.1,0-2.2-0.1-3.2-0.4c-1.1-0.3-2-0.8-2.9-1.6c-0.9-0.8-1.6-1.8-2.1-3
					c-0.5-1.2-0.8-2.9-0.8-4.8v-10.4c0-3.1-0.3-5.3-0.8-6.5c-0.5-1.3-1.5-1.9-2.9-1.9h-2.4v-4.7h2.4c1.5,0,2.5-0.6,3-1.9
					c0.5-1.3,0.7-3.3,0.7-5.9v-10.8c0-1.7,0.3-3.1,0.8-4.2c0.5-1.1,1.2-2,2-2.7c0.8-0.7,1.8-1.1,2.8-1.4c1-0.3,2.1-0.4,3.1-0.4h3.8
					v4h-3.3c-0.7,0-1.4,0.1-2,0.3c-0.6,0.2-1.1,0.6-1.4,1.2c-0.4,0.6-0.7,1.4-0.9,2.5c-0.2,1.1-0.3,2.6-0.3,4.4v9
					c0,2.3-0.5,4.1-1.4,5.4c-0.9,1.2-2.2,2.1-3.9,2.8c1.9,0.9,3.2,2,4,3.3c0.8,1.4,1.2,3.3,1.2,5.7v9.3c0,2,0.1,3.5,0.3,4.7
					c0.2,1.1,0.5,2,0.9,2.6c0.4,0.6,0.9,0.9,1.5,1.1c0.6,0.2,1.3,0.2,2,0.2h3.2V348.6z M459.4,319.8h2.2c1.5,0,2.5,0.7,3.1,2
					c0.6,1.3,0.8,3.5,0.8,6.6v10.4c0,1.9,0.3,3.5,0.8,4.7c0.5,1.2,1.2,2.2,2.1,2.9c0.8,0.7,1.8,1.2,2.8,1.5c1,0.3,2.1,0.4,3.2,0.4
					h3.4v-3.7h-3c-0.8,0-1.4-0.1-2-0.3c-0.6-0.2-1.1-0.6-1.6-1.1c-0.4-0.6-0.7-1.5-0.9-2.7c-0.2-1.2-0.3-2.7-0.3-4.8v-9.3
					c0-2.4-0.4-4.2-1.2-5.6c-0.8-1.3-2.2-2.4-4.1-3.3l-0.2-0.1l0.2-0.1c1.8-0.6,3.1-1.5,4-2.8c0.9-1.2,1.3-3,1.3-5.3v-9
					c0-1.8,0.1-3.3,0.3-4.4c0.2-1.1,0.5-2,0.9-2.6c0.4-0.6,0.9-1,1.5-1.2c0.6-0.2,1.3-0.3,2-0.3h3.1v-3.6h-3.6c-1,0-2.1,0.1-3.1,0.4
					c-1,0.3-1.9,0.7-2.7,1.4c-0.8,0.6-1.5,1.5-2,2.6c-0.5,1.1-0.8,2.5-0.8,4.1v10.8c0,2.7-0.3,4.7-0.7,6c-0.5,1.3-1.6,2-3.2,2h-2.2
					V319.8z"/>
			</g>
		</g>
		<g>
			<g>
				<path class="st4" d="M498.1,287.5v53.9h12.3v6.1h-20.4v-60H498.1z"/>
			</g>
			<g>
				<path class="st4" d="M536.3,286.4c4,0,7.1,0.6,9.2,1.9c2.2,1.3,3.8,3.2,4.8,5.8c1,2.6,1.7,5.8,1.9,9.7c0.2,3.9,0.3,8.4,0.3,13.7
					c0,5.3-0.1,9.8-0.3,13.7c-0.2,3.9-0.8,7.1-1.9,9.7c-1,2.6-2.7,4.5-4.8,5.8c-2.2,1.3-5.2,1.9-9.2,1.9c-4,0-7.1-0.7-9.3-2
					c-2.2-1.3-3.9-3.3-5-5.8c-1.1-2.6-1.8-5.8-2.1-9.7c-0.3-3.9-0.4-8.4-0.4-13.5c0-5.1,0.1-9.6,0.4-13.4c0.3-3.9,1-7.1,2.1-9.7
					c1.1-2.6,2.8-4.6,5-5.9C529.2,287.1,532.3,286.4,536.3,286.4z M536.3,292.7c-1.9,0-3.4,0.5-4.5,1.4c-1.1,0.9-1.9,2.4-2.5,4.4
					c-0.6,2-0.9,4.5-1.1,7.7c-0.2,3.1-0.2,6.9-0.2,11.3c0,4.5,0.1,8.2,0.2,11.4c0.2,3.1,0.5,5.7,1.1,7.7c0.6,2,1.4,3.4,2.5,4.3
					c1.1,0.9,2.6,1.3,4.5,1.3c1.9,0,3.3-0.4,4.4-1.3c1-0.9,1.8-2.3,2.3-4.3s0.8-4.5,0.9-7.7c0.1-3.1,0.2-6.9,0.2-11.4
					c0-4.4-0.1-8.2-0.2-11.3c-0.1-3.1-0.4-5.7-0.9-7.7c-0.5-2-1.3-3.5-2.3-4.4C539.7,293.2,538.2,292.7,536.3,292.7z"/>
			</g>
			<g>
				<path class="st4" d="M577.6,333.7l8.2-46.2h7.6l-12.1,60H573l-12-60h8.6L577.6,333.7z"/>
			</g>
			<g>
				<path class="st4" d="M627.6,287.5v6.3h-15.1v18.9h12.6l-0.6,6.4h-12.1v22.3H628v6.1h-23.4v-60H627.6z"/>
			</g>
		</g>
		<g>
			<g>
				<path class="st6" d="M690.2,287.5c4.4,0,7.8,0.6,10.3,1.9c2.5,1.3,4.4,3.1,5.6,5.6s2.1,5.6,2.4,9.4c0.3,3.8,0.5,8.1,0.5,13.1
					c0,5.5-0.1,10.1-0.4,13.9c-0.3,3.8-1,6.9-2.3,9.3c-1.2,2.4-3,4.1-5.5,5.2c-2.4,1.1-5.8,1.6-10,1.6h-14v-60H690.2z M684.7,293.6
					v47.3h6.3c2.3,0,4-0.4,5.4-1.3c1.3-0.9,2.3-2.2,3-4.1c0.7-1.9,1.1-4.3,1.3-7.3c0.2-3,0.3-6.5,0.3-10.7c0-4.4-0.1-8.1-0.2-11.2
					c-0.2-3-0.6-5.5-1.2-7.4c-0.7-1.9-1.7-3.2-3.1-4.1c-1.4-0.9-3.4-1.3-5.8-1.3H684.7z"/>
			</g>
			<g>
				<path class="st6" d="M744.8,287.5v6.3h-15.1v18.9h12.6l-0.6,6.4h-12.1v22.3h15.5v6.1h-23.4v-60H744.8z"/>
			</g>
			<g>
				<path class="st6" d="M771.6,333.7l8.2-46.2h7.6l-12.1,60h-8.4l-12-60h8.6L771.6,333.7z"/>
			</g>
		</g>
	</g>
</g>
<g id="Capa_5" class="st0">
	<g class="st1">
		<g>
			<g>
				<path class="st6" d="M348.8,333.2h-11.2l-2.5,14.4h-7.6l11.9-60h8.5l12.1,60h-8.8L348.8,333.2z M338.1,326.9h9.9l-4.8-26.3
					L338.1,326.9z"/>
			</g>
			<g>
				<path class="st6" d="M384.5,287.6c4.4,0,7.8,0.6,10.3,1.9c2.5,1.3,4.4,3.1,5.6,5.6c1.3,2.5,2.1,5.6,2.4,9.4
					c0.3,3.8,0.5,8.1,0.5,13.1c0,5.5-0.1,10.1-0.4,13.9c-0.3,3.8-1,6.9-2.3,9.3c-1.2,2.4-3,4.1-5.5,5.2c-2.4,1.1-5.8,1.6-10,1.6h-14
					v-60H384.5z M379,293.8V341h6.3c2.3,0,4-0.4,5.4-1.3c1.3-0.9,2.3-2.2,3-4.1s1.1-4.3,1.3-7.3c0.2-3,0.3-6.5,0.3-10.7
					c0-4.4-0.1-8.1-0.2-11.2c-0.2-3-0.6-5.5-1.2-7.4c-0.7-1.9-1.7-3.2-3.1-4.1c-1.4-0.9-3.4-1.3-5.8-1.3H379z"/>
			</g>
			<g>
				<path class="st6" d="M432.5,333.2h-11.2l-2.5,14.4h-7.6l11.9-60h8.5l12.1,60h-8.8L432.5,333.2z M421.8,326.9h9.9l-4.8-26.3
					L421.8,326.9z"/>
			</g>
		</g>
		<g>
			<g>
				<polygon class="st2" points="106.1,249 151.8,258 114.6,317.6 				"/>
			</g>
		</g>
		<g>
			<g>
				<polygon class="st3" points="64.7,291.7 102.5,252.1 114.6,317.6 				"/>
			</g>
		</g>
		<g>
			<g>
				<polygon class="st4" points="151.8,258 172.7,280.6 114.6,317.6 				"/>
			</g>
		</g>
		<g>
			<g>
				<polygon class="st5" points="114.6,320.4 172.7,280.6 172.7,346 				"/>
			</g>
		</g>
		<g>
			<g>
				<polygon class="st4" points="76.2,341.2 65.1,293.5 114.6,317.6 				"/>
			</g>
		</g>
		<g>
			<g>
				<polygon class="st2" points="144.1,371.7 79.6,340.2 114.6,317.6 				"/>
			</g>
		</g>
		<g>
			<g>
				<polygon class="st3" points="171,350.5 144.6,374 115.4,317.8 				"/>
			</g>
		</g>
		<g>
			<g>
				<path class="st5" d="M82.9,341.8l61.1,29.9l26.9,49c0,0-71.2-58.4-91.4-78C78.7,341.8,81.8,341.2,82.9,341.8z"/>
			</g>
		</g>
		<g>
			<g>
				<polygon class="st4" points="144.1,371.7 171,350.5 172.7,419.4 				"/>
			</g>
		</g>
		<g>
			<g>
				<polygon class="st2" points="239.3,249 192.2,255.9 230.7,317.6 				"/>
			</g>
		</g>
		<g>
			<g>
				<polygon class="st3" points="280.6,291.7 241.7,250.8 230.7,317.6 				"/>
			</g>
		</g>
		<g>
			<g>
				<polygon class="st4" points="193.6,258 172.7,280.6 230.7,317.6 				"/>
			</g>
		</g>
		<g>
			<g>
				<polygon class="st2" points="230.7,320.4 172.7,280.6 172.7,346 				"/>
			</g>
		</g>
		<g>
			<g>
				<polygon class="st4" points="269.2,341.2 280.2,293.5 230.7,317.6 				"/>
			</g>
		</g>
		<g>
			<g>
				<polygon class="st2" points="201.3,371.7 265.7,340.2 230.7,317.6 				"/>
			</g>
		</g>
		<g>
			<g>
				<polygon class="st3" points="174.3,350.5 200.8,374 229.9,317.8 				"/>
			</g>
		</g>
		<g>
			<g>
				<path class="st5" d="M262.4,341.8l-61.1,29.9l-26.9,49c0,0,71.2-58.4,91.4-78C266.6,341.8,263.6,341.2,262.4,341.8z"/>
			</g>
		</g>
		<g>
			<g>
				<polygon class="st4" points="201.3,371.7 174.3,350.5 172.7,419.4 				"/>
			</g>
		</g>
		<g>
			<g>
				<g>
					<g>
						<path class="st6" d="M172.7,425.7c-0.3,0-0.5-0.1-0.8-0.2c-0.7-0.3-1.1-1-1.1-1.7V280.6c0-0.4,0.1-0.9,0.4-1.2l19.6-24.7
							c0.3-0.4,0.7-0.6,1.2-0.7l48.3-8c0.6-0.1,1.3,0.1,1.7,0.6l40.1,43.9c0.4,0.5,0.6,1.1,0.4,1.7L271,341.6
							c-0.1,0.4-0.3,0.8-0.6,1l-96.5,82.6C173.6,425.5,173.1,425.7,172.7,425.7z M174.6,281.2v138.3l92.9-79.5l11.1-47.8L239.8,250
							l-46.6,7.7L174.6,281.2z"/>
					</g>
				</g>
				<g>
					<g>
						<path class="st6" d="M172.7,425.7c-0.4,0-0.9-0.2-1.2-0.5l-96.5-82.6c-0.3-0.3-0.5-0.6-0.6-1l-11.5-49.4
							c-0.1-0.6,0-1.3,0.5-1.7l40.1-43.9c0.4-0.5,1.1-0.7,1.7-0.6l48.3,8c0.5,0.1,0.9,0.3,1.2,0.7l19.6,24.7
							c0.3,0.3,0.4,0.8,0.4,1.2v143.2c0,0.7-0.4,1.4-1.1,1.7C173.2,425.6,172.9,425.7,172.7,425.7z M77.9,340.1l92.9,79.5V281.2
							l-18.7-23.6l-46.6-7.7l-38.7,42.3L77.9,340.1z"/>
					</g>
				</g>
				<g>
					<g>
						<polygon class="st6" points="176,421.6 172.7,419.8 228.8,317.6 238.6,247.6 242.5,248.2 232.4,319.2 						"/>
					</g>
				</g>
				<g>
					<g>
						<polygon class="st6" points="268.2,342.8 229.1,319.2 190.6,256.9 193.9,254.9 232.1,316.8 270.1,339.5 						"/>
					</g>
				</g>
				<g>
					<g>
						
							<rect x="199.4" y="265.2" transform="matrix(0.554 -0.8325 0.8325 0.554 -159.653 301.2062)" class="st6" width="3.8" height="68.8"/>
					</g>
				</g>
				<g>
					<g>
						
							<rect x="165.5" y="318.5" transform="matrix(0.8832 -0.469 0.469 0.8832 -123.7808 143.7046)" class="st6" width="122.2" height="3.8"/>
					</g>
				</g>
				<g>
					<g>
						<polygon class="st6" points="169.3,421.6 112.7,318.5 102.9,248.2 106.7,247.6 116.5,317.6 172.7,419.8 						"/>
					</g>
				</g>
				<g>
					<g>
						<polygon class="st6" points="77.2,342.8 75.2,339.5 113.3,316.8 151.5,254.9 154.7,256.9 115.6,319.9 						"/>
					</g>
				</g>
				<g>
					<g>
						
							<rect x="109.7" y="297.7" transform="matrix(0.8321 -0.5547 0.5547 0.8321 -141.9998 130.224)" class="st6" width="68.8" height="3.8"/>
					</g>
				</g>
				<g>
					<g>
						
							<rect x="116.8" y="259.3" transform="matrix(0.4687 -0.8834 0.8834 0.4687 -219.9529 275.0852)" class="st6" width="3.8" height="122.2"/>
					</g>
				</g>
			</g>
			<g>
				<g>
					<polygon class="st6" points="144.3,374 78.8,340.8 80.5,337.4 143.8,369.4 171.4,346.2 173.9,349.1 					"/>
				</g>
			</g>
			<g>
				<g>
					<polygon class="st6" points="201,374 171.4,349.1 173.9,346.2 201.6,369.4 264.8,337.4 266.6,340.8 					"/>
				</g>
			</g>
			<g>
				<g>
					<circle class="st6" cx="114.6" cy="317.6" r="8.6"/>
				</g>
			</g>
			<g>
				<g>
					<circle class="st6" cx="172.7" cy="347.6" r="8.6"/>
				</g>
			</g>
			<g>
				<g>
					<circle class="st6" cx="230.7" cy="317.6" r="8.6"/>
				</g>
			</g>
			<g>
				<g>
					<circle class="st6" cx="172.7" cy="279.3" r="8.6"/>
				</g>
			</g>
			<g>
				<g>
					<circle class="st6" cx="172.7" cy="416" r="8.6"/>
				</g>
			</g>
			<g>
				<g>
					<circle class="st6" cx="240.6" cy="252.1" r="8.6"/>
				</g>
			</g>
			<g>
				<g>
					<circle class="st6" cx="280.6" cy="291.7" r="8.6"/>
				</g>
			</g>
			<g>
				<g>
					<circle class="st6" cx="269.2" cy="341.2" r="8.6"/>
				</g>
			</g>
			<g>
				<g>
					<circle class="st6" cx="192.7" cy="255.9" r="8.6"/>
				</g>
			</g>
			<g>
				<g>
					<circle class="st6" cx="153.1" cy="255.9" r="8.6"/>
				</g>
			</g>
			<g>
				<g>
					<circle class="st6" cx="104.8" cy="249.5" r="8.6"/>
				</g>
			</g>
			<g>
				<g>
					<circle class="st6" cx="64.7" cy="291.7" r="8.6"/>
				</g>
			</g>
			<g>
				<g>
					<circle class="st6" cx="76.2" cy="341.2" r="8.6"/>
				</g>
			</g>
			<g>
				<g>
					<circle class="st6" cx="144.1" cy="371.7" r="8.6"/>
				</g>
			</g>
			<g>
				<g>
					
						<ellipse transform="matrix(0.1136 -0.9935 0.9935 0.1136 -189.7558 530.7094)" class="st6" cx="202.6" cy="371.7" rx="8.6" ry="8.6"/>
				</g>
			</g>
		</g>
		<g>
			<g>
				<path class="st5" d="M641.4,292v-3.8h3.7c1,0,2.1,0.1,3.1,0.4c1,0.3,2,0.7,2.8,1.4s1.5,1.5,2,2.7s0.8,2.5,0.8,4.1v10.9
					c0,2.6,0.2,4.5,0.7,5.8c0.5,1.3,1.5,2,3,2h2.4v4.5h-2.4c-1.4,0-2.3,0.6-2.9,1.9c-0.6,1.2-0.9,3.3-0.9,6.3v10.7
					c0,1.9-0.3,3.5-0.8,4.8c-0.5,1.2-1.2,2.2-2.1,3c-0.8,0.7-1.8,1.3-2.8,1.5c-1,0.3-2.1,0.4-3.1,0.4h-3.6v-3.9h3
					c0.8,0,1.5-0.1,2-0.2c0.6-0.2,1.1-0.5,1.5-1.1c0.4-0.6,0.7-1.5,0.9-2.6c0.2-1.2,0.3-2.7,0.3-4.7v-9.3c0-2.4,0.4-4.2,1.3-5.6
					c0.9-1.4,2.2-2.5,4.1-3.2c-1.7-0.6-3.1-1.6-4-3.1c-0.9-1.4-1.4-3.3-1.4-5.7v-8.6c0-1.9-0.1-3.4-0.3-4.5c-0.2-1.1-0.5-2-0.9-2.5
					c-0.4-0.6-0.9-1-1.5-1.1c-0.6-0.2-1.3-0.3-2-0.3H641.4z"/>
				<path class="st5" d="M645,348.7h-3.7v-4.1h3.1c0.8,0,1.4-0.1,2-0.2c0.6-0.2,1-0.5,1.4-1.1c0.4-0.6,0.7-1.4,0.9-2.6
					c0.2-1.2,0.3-2.8,0.3-4.7v-9.3c0-2.4,0.5-4.3,1.3-5.7c0.8-1.3,2.2-2.4,3.9-3.2c-1.6-0.6-2.9-1.6-3.8-3c-0.9-1.4-1.4-3.4-1.4-5.7
					v-8.6c0-1.9-0.1-3.4-0.3-4.5c-0.2-1.1-0.5-1.9-0.9-2.5c-0.4-0.6-0.8-0.9-1.4-1.1c-0.6-0.2-1.2-0.3-2-0.3h-3.2v-4h3.8
					c1,0,2.1,0.1,3.1,0.4c1,0.3,2,0.7,2.8,1.4c0.8,0.7,1.5,1.6,2,2.7c0.5,1.1,0.8,2.5,0.8,4.2v10.9c0,2.6,0.2,4.5,0.7,5.8
					c0.5,1.3,1.4,1.9,2.9,1.9h2.5v4.7h-2.5c-1.3,0-2.3,0.6-2.8,1.8c-0.6,1.2-0.9,3.3-0.9,6.3v10.7c0,1.9-0.3,3.6-0.8,4.8
					c-0.5,1.2-1.2,2.2-2.1,3c-0.8,0.7-1.8,1.3-2.9,1.6C647.1,348.5,646.1,348.7,645,348.7z M641.5,348.5h3.5c1,0,2.1-0.1,3.1-0.4
					c1-0.3,2-0.8,2.8-1.5c0.8-0.7,1.5-1.7,2-2.9c0.5-1.2,0.8-2.8,0.8-4.7v-10.7c0-3,0.3-5.1,0.9-6.4c0.6-1.3,1.6-1.9,3-1.9h2.3v-4.3
					h-2.3c-1.6,0-2.6-0.7-3.1-2c-0.5-1.3-0.7-3.3-0.7-5.9v-10.9c0-1.6-0.3-3-0.8-4.1c-0.5-1.1-1.2-2-2-2.6c-0.8-0.6-1.7-1.1-2.8-1.4
					c-1-0.3-2.1-0.4-3.1-0.4h-3.6v3.6h3c0.8,0,1.5,0.1,2.1,0.3c0.6,0.2,1.1,0.6,1.5,1.2c0.4,0.6,0.7,1.5,0.9,2.6
					c0.2,1.1,0.3,2.7,0.3,4.5v8.6c0,2.3,0.5,4.2,1.4,5.6c0.9,1.4,2.2,2.4,3.9,3l0.2,0.1l-0.2,0.1c-1.8,0.7-3.1,1.8-4,3.2
					c-0.9,1.4-1.3,3.3-1.3,5.6v9.3c0,2-0.1,3.6-0.3,4.8c-0.2,1.2-0.5,2.1-0.9,2.7c-0.4,0.6-0.9,1-1.5,1.1c-0.6,0.2-1.3,0.3-2.1,0.3
					h-2.9V348.5z"/>
			</g>
		</g>
		<g>
			<g>
				<path class="st5" d="M474.5,292c-0.7,0-1.4,0.1-2,0.3c-0.6,0.2-1.1,0.6-1.5,1.2c-0.4,0.6-0.7,1.5-0.9,2.6
					c-0.2,1.1-0.3,2.6-0.3,4.4v9c0,2.3-0.4,4.1-1.3,5.3c-0.9,1.3-2.2,2.2-4.1,2.8c2,0.9,3.4,2,4.2,3.3c0.8,1.4,1.2,3.2,1.2,5.6v9.3
					c0,2,0.1,3.6,0.3,4.7c0.2,1.2,0.5,2.1,0.9,2.6c0.4,0.6,0.9,1,1.5,1.1c0.6,0.2,1.3,0.2,2,0.2h3.1v3.9h-3.5
					c-1.1,0-2.1-0.1-3.2-0.4c-1.1-0.3-2-0.8-2.8-1.6c-0.8-0.7-1.5-1.7-2.1-3c-0.5-1.2-0.8-2.8-0.8-4.8v-10.4c0-3.1-0.3-5.3-0.8-6.6
					c-0.6-1.3-1.6-1.9-3-1.9h-2.3v-4.5h2.3c1.6,0,2.6-0.7,3.1-2c0.5-1.3,0.7-3.3,0.7-6v-10.8c0-1.6,0.3-3,0.8-4.2
					c0.5-1.1,1.2-2,2-2.7s1.8-1.1,2.8-1.4c1-0.3,2.1-0.4,3.1-0.4h3.7v3.8H474.5z"/>
				<path class="st5" d="M477.7,348.7h-3.6c-1.1,0-2.2-0.1-3.2-0.4c-1.1-0.3-2.1-0.8-2.9-1.6c-0.9-0.8-1.6-1.8-2.1-3
					c-0.5-1.2-0.8-2.9-0.8-4.8v-10.4c0-3.1-0.3-5.3-0.8-6.5c-0.6-1.3-1.5-1.9-2.9-1.9H459v-4.7h2.4c1.5,0,2.5-0.6,3-1.9
					c0.5-1.3,0.7-3.3,0.7-5.9v-10.8c0-1.7,0.3-3.1,0.8-4.2c0.5-1.1,1.2-2,2-2.7c0.8-0.7,1.8-1.1,2.8-1.4c1.1-0.3,2.1-0.4,3.1-0.4
					h3.8v4h-3.3c-0.7,0-1.4,0.1-2,0.3c-0.6,0.2-1.1,0.6-1.4,1.2c-0.4,0.6-0.7,1.4-0.9,2.5c-0.2,1.1-0.3,2.5-0.3,4.4v9
					c0,2.3-0.5,4.1-1.4,5.4c-0.9,1.2-2.2,2.2-3.9,2.8c1.9,0.9,3.2,2,4,3.3c0.8,1.4,1.2,3.3,1.2,5.7v9.3c0,2,0.1,3.6,0.3,4.7
					c0.2,1.2,0.5,2,0.9,2.6c0.4,0.6,0.9,0.9,1.5,1.1c0.6,0.2,1.2,0.2,2,0.2h3.2V348.7z M459.2,319.9h2.2c1.5,0,2.5,0.7,3.1,2
					c0.6,1.3,0.8,3.5,0.8,6.6v10.4c0,1.9,0.3,3.5,0.8,4.7c0.5,1.2,1.2,2.2,2,2.9c0.8,0.7,1.8,1.2,2.8,1.5c1,0.3,2.1,0.4,3.2,0.4h3.4
					v-3.7h-3c-0.8,0-1.5-0.1-2-0.2c-0.6-0.2-1.1-0.6-1.6-1.2c-0.4-0.6-0.7-1.5-0.9-2.7c-0.2-1.2-0.3-2.7-0.3-4.8v-9.3
					c0-2.4-0.4-4.2-1.2-5.6c-0.8-1.3-2.2-2.4-4.1-3.3l-0.2-0.1l0.2-0.1c1.8-0.6,3.1-1.5,4-2.8c0.9-1.2,1.3-3,1.3-5.3v-9
					c0-1.9,0.1-3.3,0.3-4.4c0.2-1.1,0.5-2,0.9-2.6c0.4-0.6,0.9-1,1.5-1.3c0.6-0.2,1.3-0.3,2-0.3h3.1v-3.6h-3.6c-1,0-2,0.1-3.1,0.4
					c-1,0.3-1.9,0.7-2.8,1.4c-0.8,0.6-1.5,1.5-2,2.6c-0.5,1.1-0.8,2.5-0.8,4.1v10.8c0,2.7-0.3,4.7-0.7,6c-0.5,1.3-1.6,2-3.2,2h-2.2
					V319.9z"/>
			</g>
		</g>
		<g>
			<g>
				<path class="st5" d="M497.9,287.5v53.9h12.3v6.1h-20.4v-60H497.9z"/>
			</g>
			<g>
				<path class="st5" d="M536.1,286.4c4,0,7.1,0.6,9.2,1.9c2.2,1.3,3.8,3.2,4.8,5.8c1,2.6,1.7,5.8,1.9,9.7c0.2,3.9,0.3,8.4,0.3,13.7
					c0,5.3-0.1,9.8-0.3,13.7c-0.2,3.9-0.8,7.1-1.9,9.7c-1,2.6-2.7,4.5-4.8,5.8c-2.2,1.3-5.2,1.9-9.2,1.9c-4,0-7.1-0.7-9.3-2
					c-2.2-1.3-3.9-3.3-5-5.8c-1.1-2.6-1.8-5.8-2.1-9.7c-0.3-3.9-0.4-8.4-0.4-13.5c0-5.1,0.1-9.6,0.4-13.4c0.3-3.9,1-7.1,2.1-9.7
					c1.1-2.6,2.8-4.6,5-5.9C529,287.1,532.1,286.4,536.1,286.4z M536.1,292.7c-1.9,0-3.4,0.5-4.5,1.4c-1.1,0.9-1.9,2.4-2.5,4.4
					c-0.6,2-0.9,4.5-1.1,7.7c-0.2,3.1-0.2,6.9-0.2,11.3c0,4.5,0.1,8.2,0.2,11.4c0.2,3.1,0.5,5.7,1.1,7.7c0.6,2,1.4,3.4,2.5,4.3
					s2.6,1.3,4.5,1.3c1.9,0,3.3-0.4,4.4-1.3c1-0.9,1.8-2.3,2.3-4.3s0.8-4.5,0.9-7.7c0.1-3.1,0.2-6.9,0.2-11.4
					c0-4.4-0.1-8.2-0.2-11.3c-0.1-3.1-0.4-5.7-0.9-7.7c-0.5-2-1.3-3.5-2.3-4.4C539.4,293.2,538,292.7,536.1,292.7z"/>
			</g>
			<g>
				<path class="st5" d="M577.4,333.7l8.2-46.2h7.6l-12.1,60h-8.4l-12-60h8.6L577.4,333.7z"/>
			</g>
			<g>
				<path class="st5" d="M627.4,287.5v6.3h-15.1v18.9h12.6l-0.6,6.4h-12.1v22.3h15.5v6.1h-23.4v-60H627.4z"/>
			</g>
		</g>
		<g>
			<g>
				<path class="st6" d="M690,287.5c4.3,0,7.8,0.6,10.3,1.9c2.5,1.3,4.4,3.1,5.6,5.6c1.3,2.5,2.1,5.6,2.4,9.4
					c0.3,3.8,0.5,8.1,0.5,13.1c0,5.5-0.1,10.1-0.4,13.9c-0.3,3.8-1,6.9-2.3,9.3c-1.2,2.4-3,4.1-5.5,5.2s-5.8,1.6-10,1.6h-14v-60H690
					z M684.4,293.6v47.3h6.3c2.3,0,4-0.4,5.4-1.3c1.3-0.9,2.3-2.2,3-4.1c0.7-1.9,1.1-4.3,1.3-7.3c0.2-3,0.3-6.5,0.3-10.7
					c0-4.4-0.1-8.1-0.2-11.2c-0.2-3-0.6-5.5-1.2-7.4c-0.7-1.9-1.7-3.2-3.1-4.1c-1.4-0.9-3.4-1.3-5.8-1.3H684.4z"/>
			</g>
			<g>
				<path class="st6" d="M744.6,287.5v6.3h-15.1v18.9h12.6l-0.6,6.4h-12.1v22.3H745v6.1h-23.4v-60H744.6z"/>
			</g>
			<g>
				<path class="st6" d="M771.3,333.7l8.2-46.2h7.6l-12.1,60h-8.4l-12-60h8.6L771.3,333.7z"/>
			</g>
		</g>
	</g>
</g>
</svg>
